<?xml version="1.0" encoding="UTF-8" standalone="no"?>
<!DOCTYPE svg PUBLIC "-//W3C//DTD SVG 1.1//EN"
 "http://www.w3.org/Graphics/SVG/1.1/DTD/svg11.dtd">
<!-- Generated by graphviz version 8.0.1 (20230327.1645)
 -->
<!-- Title: G Pages: 1 -->
<svg width="2204pt" height="1677pt"
 viewBox="0.00 0.00 2203.54 1677.41" xmlns="http://www.w3.org/2000/svg" xmlns:xlink="http://www.w3.org/1999/xlink">
<g id="graph0" class="graph" transform="scale(1 1) rotate(0) translate(21.6 1655.81)">
<title>G</title>
<polygon fill="#111111" stroke="none" points="-21.6,21.6 -21.6,-1655.81 2181.94,-1655.81 2181.94,21.6 -21.6,21.6"/>
<!-- ../public/image/Assembly.png -->
<g id="node1" class="node">
<title>../public/image/Assembly.png</title>
<path fill="none" stroke="#cfffac" d="M221.44,-834.88C221.44,-834.88 33.77,-834.88 33.77,-834.88 29.94,-834.88 26.1,-831.05 26.1,-827.22 26.1,-827.22 26.1,-819.55 26.1,-819.55 26.1,-815.72 29.94,-811.88 33.77,-811.88 33.77,-811.88 221.44,-811.88 221.44,-811.88 225.27,-811.88 229.1,-815.72 229.1,-819.55 229.1,-819.55 229.1,-827.22 229.1,-827.22 229.1,-831.05 225.27,-834.88 221.44,-834.88"/>
<text text-anchor="middle" x="127.6" y="-819.68" font-family="Arial" font-size="14.00" fill="#cfffac">../public/image/Assembly.png</text>
</g>
<!-- ../public/image/Quadruple.png -->
<g id="node2" class="node">
<title>../public/image/Quadruple.png</title>
<path fill="none" stroke="#cfffac" d="M574.44,-867.9C574.44,-867.9 383.78,-867.9 383.78,-867.9 379.94,-867.9 376.11,-864.06 376.11,-860.23 376.11,-860.23 376.11,-852.56 376.11,-852.56 376.11,-848.73 379.94,-844.9 383.78,-844.9 383.78,-844.9 574.44,-844.9 574.44,-844.9 578.28,-844.9 582.11,-848.73 582.11,-852.56 582.11,-852.56 582.11,-860.23 582.11,-860.23 582.11,-864.06 578.28,-867.9 574.44,-867.9"/>
<text text-anchor="middle" x="479.11" y="-852.7" font-family="Arial" font-size="14.00" fill="#cfffac">../public/image/Quadruple.png</text>
</g>
<!-- ../public/image/ReactCCompiler.svg -->
<g id="node3" class="node">
<title>../public/image/ReactCCompiler.svg</title>
<path fill="none" stroke="#cfffac" d="M236.33,-1176.41C236.33,-1176.41 7.67,-1176.41 7.67,-1176.41 3.83,-1176.41 0,-1172.58 0,-1168.75 0,-1168.75 0,-1161.08 0,-1161.08 0,-1157.25 3.83,-1153.41 7.67,-1153.41 7.67,-1153.41 236.33,-1153.41 236.33,-1153.41 240.17,-1153.41 244,-1157.25 244,-1161.08 244,-1161.08 244,-1168.75 244,-1168.75 244,-1172.58 240.17,-1176.41 236.33,-1176.41"/>
<text text-anchor="middle" x="122" y="-1161.21" font-family="Arial" font-size="14.00" fill="#cfffac">../public/image/ReactCCompiler.svg</text>
</g>
<!-- compiler.tsx -->
<g id="node4" class="node">
<title>compiler.tsx</title>
<path fill="none" stroke="#c6c5fe" d="M1165.11,-582.47C1165.11,-582.47 1087.44,-582.47 1087.44,-582.47 1083.61,-582.47 1079.77,-578.64 1079.77,-574.8 1079.77,-574.8 1079.77,-567.14 1079.77,-567.14 1079.77,-563.3 1083.61,-559.47 1087.44,-559.47 1087.44,-559.47 1165.11,-559.47 1165.11,-559.47 1168.94,-559.47 1172.77,-563.3 1172.77,-567.14 1172.77,-567.14 1172.77,-574.8 1172.77,-574.8 1172.77,-578.64 1168.94,-582.47 1165.11,-582.47"/>
<text text-anchor="middle" x="1126.27" y="-567.27" font-family="Arial" font-size="14.00" fill="#c6c5fe">compiler.tsx</text>
</g>
<!-- components/Alert/index.tsx -->
<g id="node5" class="node">
<title>components/Alert/index.tsx</title>
<path fill="none" stroke="#cfffac" d="M1504.41,-797.82C1504.41,-797.82 1331.74,-797.82 1331.74,-797.82 1327.91,-797.82 1324.08,-793.99 1324.08,-790.16 1324.08,-790.16 1324.08,-782.49 1324.08,-782.49 1324.08,-778.66 1327.91,-774.82 1331.74,-774.82 1331.74,-774.82 1504.41,-774.82 1504.41,-774.82 1508.24,-774.82 1512.08,-778.66 1512.08,-782.49 1512.08,-782.49 1512.08,-790.16 1512.08,-790.16 1512.08,-793.99 1508.24,-797.82 1504.41,-797.82"/>
<text text-anchor="middle" x="1418.08" y="-782.62" font-family="Arial" font-size="14.00" fill="#cfffac">components/Alert/index.tsx</text>
</g>
<!-- compiler.tsx&#45;&gt;components/Alert/index.tsx -->
<g id="edge1" class="edge">
<title>compiler.tsx&#45;&gt;components/Alert/index.tsx</title>
<path fill="none" stroke="#757575" d="M1142.38,-582.85C1190.8,-618.59 1335.33,-725.26 1393.46,-768.16"/>
<polygon fill="#757575" stroke="#757575" points="1390.9,-771.35 1401.02,-774.48 1395.05,-765.72 1390.9,-771.35"/>
</g>
<!-- components/Separator/index.tsx -->
<g id="node6" class="node">
<title>components/Separator/index.tsx</title>
<path fill="none" stroke="#cfffac" d="M1114.3,-742.21C1114.3,-742.21 908.63,-742.21 908.63,-742.21 904.8,-742.21 900.97,-738.38 900.97,-734.54 900.97,-734.54 900.97,-726.88 900.97,-726.88 900.97,-723.04 904.8,-719.21 908.63,-719.21 908.63,-719.21 1114.3,-719.21 1114.3,-719.21 1118.13,-719.21 1121.97,-723.04 1121.97,-726.88 1121.97,-726.88 1121.97,-734.54 1121.97,-734.54 1121.97,-738.38 1118.13,-742.21 1114.3,-742.21"/>
<text text-anchor="middle" x="1011.47" y="-727.01" font-family="Arial" font-size="14.00" fill="#cfffac">components/Separator/index.tsx</text>
</g>
<!-- compiler.tsx&#45;&gt;components/Separator/index.tsx -->
<g id="edge2" class="edge">
<title>compiler.tsx&#45;&gt;components/Separator/index.tsx</title>
<path fill="none" stroke="#757575" d="M1117.83,-582.71C1098.42,-609.72 1050.44,-676.48 1026.11,-710.33"/>
<polygon fill="#757575" stroke="#757575" points="1022.91,-707.78 1019.92,-717.95 1028.6,-711.87 1022.91,-707.78"/>
</g>
<!-- utils/generate.ts -->
<g id="node7" class="node">
<title>utils/generate.ts</title>
<path fill="none" stroke="#c6c5fe" d="M1393.1,-578.59C1393.1,-578.59 1292.44,-578.59 1292.44,-578.59 1288.6,-578.59 1284.77,-574.75 1284.77,-570.92 1284.77,-570.92 1284.77,-563.25 1284.77,-563.25 1284.77,-559.42 1288.6,-555.59 1292.44,-555.59 1292.44,-555.59 1393.1,-555.59 1393.1,-555.59 1396.94,-555.59 1400.77,-559.42 1400.77,-563.25 1400.77,-563.25 1400.77,-570.92 1400.77,-570.92 1400.77,-574.75 1396.94,-578.59 1393.1,-578.59"/>
<text text-anchor="middle" x="1342.77" y="-563.39" font-family="Arial" font-size="14.00" fill="#c6c5fe">utils/generate.ts</text>
</g>
<!-- compiler.tsx&#45;&gt;utils/generate.ts -->
<g id="edge3" class="edge">
<title>compiler.tsx&#45;&gt;utils/generate.ts</title>
<path fill="none" stroke="#757575" d="M1173.25,-570.13C1202.52,-569.6 1240.71,-568.92 1273.43,-568.33"/>
<polygon fill="#757575" stroke="#757575" points="1273.36,-571.81 1283.29,-568.13 1273.23,-564.81 1273.36,-571.81"/>
</g>
<!-- utils/logger.ts -->
<g id="node8" class="node">
<title>utils/logger.ts</title>
<path fill="none" stroke="#cfffac" d="M1013.34,-361.59C1013.34,-361.59 927.68,-361.59 927.68,-361.59 923.84,-361.59 920.01,-357.75 920.01,-353.92 920.01,-353.92 920.01,-346.25 920.01,-346.25 920.01,-342.42 923.84,-338.59 927.68,-338.59 927.68,-338.59 1013.34,-338.59 1013.34,-338.59 1017.18,-338.59 1021.01,-342.42 1021.01,-346.25 1021.01,-346.25 1021.01,-353.92 1021.01,-353.92 1021.01,-357.75 1017.18,-361.59 1013.34,-361.59"/>
<text text-anchor="middle" x="970.51" y="-346.39" font-family="Arial" font-size="14.00" fill="#cfffac">utils/logger.ts</text>
</g>
<!-- compiler.tsx&#45;&gt;utils/logger.ts -->
<g id="edge4" class="edge">
<title>compiler.tsx&#45;&gt;utils/logger.ts</title>
<path fill="none" stroke="#757575" d="M1117.9,-559.09C1092.7,-523.36 1017.36,-416.52 985.26,-371"/>
<polygon fill="#757575" stroke="#757575" points="987.55,-369.18 978.92,-363.02 981.83,-373.21 987.55,-369.18"/>
</g>
<!-- utils/parse.ts -->
<g id="node9" class="node">
<title>utils/parse.ts</title>
<path fill="none" stroke="#c6c5fe" d="M1217.9,-338.76C1217.9,-338.76 1137.24,-338.76 1137.24,-338.76 1133.4,-338.76 1129.57,-334.93 1129.57,-331.1 1129.57,-331.1 1129.57,-323.43 1129.57,-323.43 1129.57,-319.6 1133.4,-315.76 1137.24,-315.76 1137.24,-315.76 1217.9,-315.76 1217.9,-315.76 1221.74,-315.76 1225.57,-319.6 1225.57,-323.43 1225.57,-323.43 1225.57,-331.1 1225.57,-331.1 1225.57,-334.93 1221.74,-338.76 1217.9,-338.76"/>
<text text-anchor="middle" x="1177.57" y="-323.56" font-family="Arial" font-size="14.00" fill="#c6c5fe">utils/parse.ts</text>
</g>
<!-- compiler.tsx&#45;&gt;utils/parse.ts -->
<g id="edge5" class="edge">
<title>compiler.tsx&#45;&gt;utils/parse.ts</title>
<path fill="none" stroke="#757575" d="M1128.75,-559.21C1136.77,-521.1 1162.16,-400.49 1172.8,-349.92"/>
<polygon fill="#757575" stroke="#757575" points="1176.43,-350.69 1175.06,-340.19 1169.58,-349.25 1176.43,-350.69"/>
</g>
<!-- utils/token.ts -->
<g id="node10" class="node">
<title>utils/token.ts</title>
<path fill="none" stroke="#c6c5fe" d="M1649.03,-645.84C1649.03,-645.84 1569.36,-645.84 1569.36,-645.84 1565.53,-645.84 1561.69,-642.01 1561.69,-638.17 1561.69,-638.17 1561.69,-630.51 1561.69,-630.51 1561.69,-626.67 1565.53,-622.84 1569.36,-622.84 1569.36,-622.84 1649.03,-622.84 1649.03,-622.84 1652.86,-622.84 1656.69,-626.67 1656.69,-630.51 1656.69,-630.51 1656.69,-638.17 1656.69,-638.17 1656.69,-642.01 1652.86,-645.84 1649.03,-645.84"/>
<text text-anchor="middle" x="1609.19" y="-630.64" font-family="Arial" font-size="14.00" fill="#c6c5fe">utils/token.ts</text>
</g>
<!-- compiler.tsx&#45;&gt;utils/token.ts -->
<g id="edge6" class="edge">
<title>compiler.tsx&#45;&gt;utils/token.ts</title>
<path fill="none" stroke="#757575" d="M1173.02,-577.1C1261.57,-588.72 1453.56,-613.92 1550.57,-626.65"/>
<polygon fill="#757575" stroke="#757575" points="1549.98,-630.23 1560.36,-628.06 1550.9,-623.29 1549.98,-630.23"/>
</g>
<!-- utils/generate.ts&#45;&gt;utils/logger.ts -->
<g id="edge62" class="edge">
<title>utils/generate.ts&#45;&gt;utils/logger.ts</title>
<path fill="none" stroke="#757575" d="M1322.22,-555.11C1259.94,-518.8 1073.02,-409.84 1000.1,-367.34"/>
<polygon fill="#757575" stroke="#757575" points="1002.39,-364.04 991.99,-362.03 998.87,-370.09 1002.39,-364.04"/>
</g>
<!-- utils/classes/astnode&#45;class.ts -->
<g id="node37" class="node">
<title>utils/classes/astnode&#45;class.ts</title>
<path fill="none" stroke="#ff6c60" d="M1518.28,-339.84C1518.28,-339.84 1332.62,-339.84 1332.62,-339.84 1328.78,-339.84 1324.95,-336.01 1324.95,-332.17 1324.95,-332.17 1324.95,-324.51 1324.95,-324.51 1324.95,-320.67 1328.78,-316.84 1332.62,-316.84 1332.62,-316.84 1518.28,-316.84 1518.28,-316.84 1522.12,-316.84 1525.95,-320.67 1525.95,-324.51 1525.95,-324.51 1525.95,-332.17 1525.95,-332.17 1525.95,-336.01 1522.12,-339.84 1518.28,-339.84"/>
<text text-anchor="middle" x="1425.45" y="-324.64" font-family="Arial" font-size="14.00" fill="#ff6c60">utils/classes/astnode&#45;class.ts</text>
</g>
<!-- utils/generate.ts&#45;&gt;utils/classes/astnode&#45;class.ts -->
<g id="edge57" class="edge">
<title>utils/generate.ts&#45;&gt;utils/classes/astnode&#45;class.ts</title>
<path fill="none" stroke="#757575" d="M1346.87,-555.25C1359.93,-517.54 1400.69,-399.83 1417.79,-350.47"/>
<polygon fill="#757575" stroke="#757575" points="1421.36,-351.85 1421.33,-341.25 1414.75,-349.56 1421.36,-351.85"/>
</g>
<!-- utils/classes/localvariable&#45;class.ts -->
<g id="node38" class="node">
<title>utils/classes/localvariable&#45;class.ts</title>
<path fill="none" stroke="#ff6c60" d="M1701.27,-29.3C1701.27,-29.3 1488.61,-29.3 1488.61,-29.3 1484.77,-29.3 1480.94,-25.47 1480.94,-21.63 1480.94,-21.63 1480.94,-13.97 1480.94,-13.97 1480.94,-10.13 1484.77,-6.3 1488.61,-6.3 1488.61,-6.3 1701.27,-6.3 1701.27,-6.3 1705.11,-6.3 1708.94,-10.13 1708.94,-13.97 1708.94,-13.97 1708.94,-21.63 1708.94,-21.63 1708.94,-25.47 1705.11,-29.3 1701.27,-29.3"/>
<text text-anchor="middle" x="1594.94" y="-14.1" font-family="Arial" font-size="14.00" fill="#ff6c60">utils/classes/localvariable&#45;class.ts</text>
</g>
<!-- utils/generate.ts&#45;&gt;utils/classes/localvariable&#45;class.ts -->
<g id="edge59" class="edge">
<title>utils/generate.ts&#45;&gt;utils/classes/localvariable&#45;class.ts</title>
<path fill="none" stroke="#757575" d="M1348.27,-555.1C1380.32,-485.3 1542.93,-131.08 1584.99,-39.46"/>
<polygon fill="#757575" stroke="#757575" points="1588.52,-41.17 1589.51,-30.62 1582.16,-38.25 1588.52,-41.17"/>
</g>
<!-- utils/classes/typedef&#45;class.ts -->
<g id="node39" class="node">
<title>utils/classes/typedef&#45;class.ts</title>
<path fill="none" stroke="#ff6c60" d="M2104.71,-108.38C2104.71,-108.38 1922.05,-108.38 1922.05,-108.38 1918.21,-108.38 1914.38,-104.55 1914.38,-100.71 1914.38,-100.71 1914.38,-93.05 1914.38,-93.05 1914.38,-89.21 1918.21,-85.38 1922.05,-85.38 1922.05,-85.38 2104.71,-85.38 2104.71,-85.38 2108.55,-85.38 2112.38,-89.21 2112.38,-93.05 2112.38,-93.05 2112.38,-100.71 2112.38,-100.71 2112.38,-104.55 2108.55,-108.38 2104.71,-108.38"/>
<text text-anchor="middle" x="2013.38" y="-93.18" font-family="Arial" font-size="14.00" fill="#ff6c60">utils/classes/typedef&#45;class.ts</text>
</g>
<!-- utils/generate.ts&#45;&gt;utils/classes/typedef&#45;class.ts -->
<g id="edge60" class="edge">
<title>utils/generate.ts&#45;&gt;utils/classes/typedef&#45;class.ts</title>
<path fill="none" stroke="#757575" d="M1359.68,-555.23C1450.28,-491.7 1878.16,-191.69 1987.76,-114.85"/>
<polygon fill="#757575" stroke="#757575" points="1989.33,-117.31 1995.51,-108.71 1985.31,-111.58 1989.33,-117.31"/>
</g>
<!-- utils/commons.ts -->
<g id="node40" class="node">
<title>utils/commons.ts</title>
<path fill="none" stroke="#ff6c60" d="M1775.85,-399.43C1775.85,-399.43 1668.18,-399.43 1668.18,-399.43 1664.35,-399.43 1660.52,-395.6 1660.52,-391.77 1660.52,-391.77 1660.52,-384.1 1660.52,-384.1 1660.52,-380.27 1664.35,-376.43 1668.18,-376.43 1668.18,-376.43 1775.85,-376.43 1775.85,-376.43 1779.68,-376.43 1783.52,-380.27 1783.52,-384.1 1783.52,-384.1 1783.52,-391.77 1783.52,-391.77 1783.52,-395.6 1779.68,-399.43 1775.85,-399.43"/>
<text text-anchor="middle" x="1722.02" y="-384.23" font-family="Arial" font-size="14.00" fill="#ff6c60">utils/commons.ts</text>
</g>
<!-- utils/generate.ts&#45;&gt;utils/commons.ts -->
<g id="edge61" class="edge">
<title>utils/generate.ts&#45;&gt;utils/commons.ts</title>
<path fill="none" stroke="#757575" d="M1367.95,-555.19C1433.97,-524 1612.18,-439.82 1687.58,-404.2"/>
<polygon fill="#757575" stroke="#757575" points="1688.55,-407.14 1696.09,-399.71 1685.56,-400.81 1688.55,-407.14"/>
</g>
<!-- utils/classes/functionnode&#45;class.ts -->
<g id="node41" class="node">
<title>utils/classes/functionnode&#45;class.ts</title>
<path fill="none" stroke="#c6c5fe" d="M1345.48,-23C1345.48,-23 1128.81,-23 1128.81,-23 1124.98,-23 1121.15,-19.17 1121.15,-15.33 1121.15,-15.33 1121.15,-7.67 1121.15,-7.67 1121.15,-3.83 1124.98,0 1128.81,0 1128.81,0 1345.48,0 1345.48,0 1349.31,0 1353.15,-3.83 1353.15,-7.67 1353.15,-7.67 1353.15,-15.33 1353.15,-15.33 1353.15,-19.17 1349.31,-23 1345.48,-23"/>
<text text-anchor="middle" x="1237.15" y="-7.8" font-family="Arial" font-size="14.00" fill="#c6c5fe">utils/classes/functionnode&#45;class.ts</text>
</g>
<!-- utils/generate.ts&#45;&gt;utils/classes/functionnode&#45;class.ts -->
<g id="edge58" class="edge">
<title>utils/generate.ts&#45;&gt;utils/classes/functionnode&#45;class.ts</title>
<path fill="none" stroke="#757575" d="M1340.51,-555.22C1327.24,-485.4 1259.25,-127.77 1241.43,-34.02"/>
<polygon fill="#757575" stroke="#757575" points="1244.73,-33.66 1239.43,-24.49 1237.85,-34.96 1244.73,-33.66"/>
</g>
<!-- utils/parse.ts&#45;&gt;utils/logger.ts -->
<g id="edge69" class="edge">
<title>utils/parse.ts&#45;&gt;utils/logger.ts</title>
<path fill="none" stroke="#757575" d="M1129.29,-332.59C1100.32,-335.78 1063.18,-339.87 1032.12,-343.3"/>
<polygon fill="#757575" stroke="#757575" points="1031.96,-339.9 1022.4,-344.48 1032.73,-346.86 1031.96,-339.9"/>
</g>
<!-- utils/parse.ts&#45;&gt;utils/token.ts -->
<g id="edge71" class="edge">
<title>utils/parse.ts&#45;&gt;utils/token.ts</title>
<path fill="none" stroke="#757575" d="M1194.23,-339.11C1260.18,-386.03 1503.32,-559.02 1583.42,-616"/>
<polygon fill="#757575" stroke="#757575" points="1581.18,-619.42 1591.36,-622.36 1585.24,-613.71 1581.18,-619.42"/>
</g>
<!-- utils/parse.ts&#45;&gt;utils/classes/astnode&#45;class.ts -->
<g id="edge63" class="edge">
<title>utils/parse.ts&#45;&gt;utils/classes/astnode&#45;class.ts</title>
<path fill="none" stroke="#757575" d="M1225.95,-327.47C1251.1,-327.58 1282.95,-327.72 1313.78,-327.86"/>
<polygon fill="#757575" stroke="#757575" points="1313.61,-331.36 1323.63,-327.9 1313.64,-324.36 1313.61,-331.36"/>
</g>
<!-- utils/parse.ts&#45;&gt;utils/classes/localvariable&#45;class.ts -->
<g id="edge65" class="edge">
<title>utils/parse.ts&#45;&gt;utils/classes/localvariable&#45;class.ts</title>
<path fill="none" stroke="#757575" d="M1193.68,-315.32C1257.59,-267.93 1493.63,-92.92 1570.54,-35.89"/>
<polygon fill="#757575" stroke="#757575" points="1572.16,-38.31 1578.11,-29.54 1567.99,-32.68 1572.16,-38.31"/>
</g>
<!-- utils/parse.ts&#45;&gt;utils/classes/typedef&#45;class.ts -->
<g id="edge67" class="edge">
<title>utils/parse.ts&#45;&gt;utils/classes/typedef&#45;class.ts</title>
<path fill="none" stroke="#757575" d="M1221.04,-315.28C1361.89,-276.46 1805.51,-154.18 1959.83,-111.64"/>
<polygon fill="#757575" stroke="#757575" points="1960.29,-114.87 1969.01,-108.84 1958.43,-108.12 1960.29,-114.87"/>
</g>
<!-- utils/parse.ts&#45;&gt;utils/commons.ts -->
<g id="edge68" class="edge">
<title>utils/parse.ts&#45;&gt;utils/commons.ts</title>
<path fill="none" stroke="#757575" d="M1225.89,-332.65C1321.82,-343.34 1536.77,-367.29 1649.64,-379.87"/>
<polygon fill="#757575" stroke="#757575" points="1648.92,-383.42 1659.24,-381.05 1649.69,-376.46 1648.92,-383.42"/>
</g>
<!-- utils/parse.ts&#45;&gt;utils/classes/functionnode&#45;class.ts -->
<g id="edge64" class="edge">
<title>utils/parse.ts&#45;&gt;utils/classes/functionnode&#45;class.ts</title>
<path fill="none" stroke="#757575" d="M1179.83,-315.27C1188.72,-268.18 1221.31,-95.46 1232.96,-33.67"/>
<polygon fill="#757575" stroke="#757575" points="1236.53,-34.64 1234.95,-24.17 1229.65,-33.35 1236.53,-34.64"/>
</g>
<!-- utils/classes/token&#45;class.ts -->
<g id="node42" class="node">
<title>utils/classes/token&#45;class.ts</title>
<path fill="none" stroke="#ff6c60" d="M2115.93,-627.09C2115.93,-627.09 1946.27,-627.09 1946.27,-627.09 1942.43,-627.09 1938.6,-623.26 1938.6,-619.42 1938.6,-619.42 1938.6,-611.76 1938.6,-611.76 1938.6,-607.92 1942.43,-604.09 1946.27,-604.09 1946.27,-604.09 2115.93,-604.09 2115.93,-604.09 2119.77,-604.09 2123.6,-607.92 2123.6,-611.76 2123.6,-611.76 2123.6,-619.42 2123.6,-619.42 2123.6,-623.26 2119.77,-627.09 2115.93,-627.09"/>
<text text-anchor="middle" x="2031.1" y="-611.89" font-family="Arial" font-size="14.00" fill="#ff6c60">utils/classes/token&#45;class.ts</text>
</g>
<!-- utils/parse.ts&#45;&gt;utils/classes/token&#45;class.ts -->
<g id="edge66" class="edge">
<title>utils/parse.ts&#45;&gt;utils/classes/token&#45;class.ts</title>
<path fill="none" stroke="#757575" d="M1212.89,-339.2C1348.22,-384.91 1833.73,-548.92 1985.46,-600.17"/>
<polygon fill="#757575" stroke="#757575" points="1984.2,-603.78 1994.79,-603.66 1986.44,-597.15 1984.2,-603.78"/>
</g>
<!-- utils/quadruple.ts -->
<g id="node43" class="node">
<title>utils/quadruple.ts</title>
<path fill="none" stroke="#c6c5fe" d="M963.06,-31.04C963.06,-31.04 855.39,-31.04 855.39,-31.04 851.56,-31.04 847.73,-27.2 847.73,-23.37 847.73,-23.37 847.73,-15.7 847.73,-15.7 847.73,-11.87 851.56,-8.04 855.39,-8.04 855.39,-8.04 963.06,-8.04 963.06,-8.04 966.89,-8.04 970.73,-11.87 970.73,-15.7 970.73,-15.7 970.73,-23.37 970.73,-23.37 970.73,-27.2 966.89,-31.04 963.06,-31.04"/>
<text text-anchor="middle" x="909.23" y="-15.84" font-family="Arial" font-size="14.00" fill="#c6c5fe">utils/quadruple.ts</text>
</g>
<!-- utils/parse.ts&#45;&gt;utils/quadruple.ts -->
<g id="edge70" class="edge">
<title>utils/parse.ts&#45;&gt;utils/quadruple.ts</title>
<path fill="none" stroke="#757575" d="M1167.38,-315.58C1126.95,-269.21 977.58,-97.92 926.49,-39.33"/>
<polygon fill="#757575" stroke="#757575" points="928.64,-37.47 919.43,-32.23 923.36,-42.07 928.64,-37.47"/>
</g>
<!-- utils/token.ts&#45;&gt;utils/logger.ts -->
<g id="edge75" class="edge">
<title>utils/token.ts&#45;&gt;utils/logger.ts</title>
<path fill="none" stroke="#757575" d="M1582.56,-622.49C1481.73,-577.61 1123.21,-418.05 1007.09,-366.37"/>
<polygon fill="#757575" stroke="#757575" points="1008.81,-362.86 998.25,-361.99 1005.97,-369.25 1008.81,-362.86"/>
</g>
<!-- utils/token.ts&#45;&gt;utils/commons.ts -->
<g id="edge74" class="edge">
<title>utils/token.ts&#45;&gt;utils/commons.ts</title>
<path fill="none" stroke="#757575" d="M1614.64,-622.46C1632.43,-583.59 1689.09,-459.85 1712.13,-409.53"/>
<polygon fill="#757575" stroke="#757575" points="1715.65,-411.25 1716.63,-400.7 1709.28,-408.33 1715.65,-411.25"/>
</g>
<!-- utils/token.ts&#45;&gt;utils/classes/token&#45;class.ts -->
<g id="edge73" class="edge">
<title>utils/token.ts&#45;&gt;utils/classes/token&#45;class.ts</title>
<path fill="none" stroke="#757575" d="M1657.18,-632.21C1722.53,-629.3 1841.22,-624.03 1927.39,-620.2"/>
<polygon fill="#757575" stroke="#757575" points="1927.42,-623.66 1937.26,-619.72 1927.11,-616.66 1927.42,-623.66"/>
</g>
<!-- components/Card/card&#45;body.tsx -->
<g id="node11" class="node">
<title>components/Card/card&#45;body.tsx</title>
<path fill="none" stroke="#cfffac" d="M663.84,-48.12C663.84,-48.12 460.17,-48.12 460.17,-48.12 456.34,-48.12 452.51,-44.29 452.51,-40.45 452.51,-40.45 452.51,-32.79 452.51,-32.79 452.51,-28.95 456.34,-25.12 460.17,-25.12 460.17,-25.12 663.84,-25.12 663.84,-25.12 667.67,-25.12 671.51,-28.95 671.51,-32.79 671.51,-32.79 671.51,-40.45 671.51,-40.45 671.51,-44.29 667.67,-48.12 663.84,-48.12"/>
<text text-anchor="middle" x="562.01" y="-32.92" font-family="Arial" font-size="14.00" fill="#cfffac">components/Card/card&#45;body.tsx</text>
</g>
<!-- components/Card/card&#45;header.tsx -->
<g id="node12" class="node">
<title>components/Card/card&#45;header.tsx</title>
<path fill="none" stroke="#cfffac" d="M254.77,-77.65C254.77,-77.65 38.11,-77.65 38.11,-77.65 34.27,-77.65 30.44,-73.82 30.44,-69.99 30.44,-69.99 30.44,-62.32 30.44,-62.32 30.44,-58.49 34.27,-54.65 38.11,-54.65 38.11,-54.65 254.77,-54.65 254.77,-54.65 258.61,-54.65 262.44,-58.49 262.44,-62.32 262.44,-62.32 262.44,-69.99 262.44,-69.99 262.44,-73.82 258.61,-77.65 254.77,-77.65"/>
<text text-anchor="middle" x="146.44" y="-62.45" font-family="Arial" font-size="14.00" fill="#cfffac">components/Card/card&#45;header.tsx</text>
</g>
<!-- components/Card/card.tsx -->
<g id="node13" class="node">
<title>components/Card/card.tsx</title>
<path fill="none" stroke="#cfffac" d="M191.86,-496.21C191.86,-496.21 24.19,-496.21 24.19,-496.21 20.36,-496.21 16.53,-492.38 16.53,-488.54 16.53,-488.54 16.53,-480.88 16.53,-480.88 16.53,-477.04 20.36,-473.21 24.19,-473.21 24.19,-473.21 191.86,-473.21 191.86,-473.21 195.69,-473.21 199.53,-477.04 199.53,-480.88 199.53,-480.88 199.53,-488.54 199.53,-488.54 199.53,-492.38 195.69,-496.21 191.86,-496.21"/>
<text text-anchor="middle" x="108.03" y="-481.01" font-family="Arial" font-size="14.00" fill="#cfffac">components/Card/card.tsx</text>
</g>
<!-- components/Features/FeatureGrid/index.tsx -->
<g id="node14" class="node">
<title>components/Features/FeatureGrid/index.tsx</title>
<path fill="none" stroke="#c6c5fe" d="M974.24,-1327.87C974.24,-1327.87 695.57,-1327.87 695.57,-1327.87 691.74,-1327.87 687.9,-1324.03 687.9,-1320.2 687.9,-1320.2 687.9,-1312.53 687.9,-1312.53 687.9,-1308.7 691.74,-1304.87 695.57,-1304.87 695.57,-1304.87 974.24,-1304.87 974.24,-1304.87 978.07,-1304.87 981.9,-1308.7 981.9,-1312.53 981.9,-1312.53 981.9,-1320.2 981.9,-1320.2 981.9,-1324.03 978.07,-1327.87 974.24,-1327.87"/>
<text text-anchor="middle" x="834.9" y="-1312.67" font-family="Arial" font-size="14.00" fill="#c6c5fe">components/Features/FeatureGrid/index.tsx</text>
</g>
<!-- components/OutModal/CodeModal/index.tsx -->
<g id="node15" class="node">
<title>components/OutModal/CodeModal/index.tsx</title>
<path fill="none" stroke="#cfffac" d="M309.88,-1585.84C309.88,-1585.84 29.21,-1585.84 29.21,-1585.84 25.38,-1585.84 21.54,-1582.01 21.54,-1578.17 21.54,-1578.17 21.54,-1570.51 21.54,-1570.51 21.54,-1566.67 25.38,-1562.84 29.21,-1562.84 29.21,-1562.84 309.88,-1562.84 309.88,-1562.84 313.71,-1562.84 317.54,-1566.67 317.54,-1570.51 317.54,-1570.51 317.54,-1578.17 317.54,-1578.17 317.54,-1582.01 313.71,-1585.84 309.88,-1585.84"/>
<text text-anchor="middle" x="169.54" y="-1570.64" font-family="Arial" font-size="14.00" fill="#cfffac">components/OutModal/CodeModal/index.tsx</text>
</g>
<!-- components/Features/FeatureGrid/index.tsx&#45;&gt;components/OutModal/CodeModal/index.tsx -->
<g id="edge7" class="edge">
<title>components/Features/FeatureGrid/index.tsx&#45;&gt;components/OutModal/CodeModal/index.tsx</title>
<path fill="none" stroke="#757575" d="M804.15,-1328.29C695.99,-1370.22 333.12,-1510.92 210.46,-1558.48"/>
<polygon fill="#757575" stroke="#757575" points="209.42,-1555.51 201.36,-1562.39 211.95,-1562.04 209.42,-1555.51"/>
</g>
<!-- components/Footer/AdvancedFooter/index.tsx -->
<g id="node16" class="node">
<title>components/Footer/AdvancedFooter/index.tsx</title>
<path fill="none" stroke="#c6c5fe" d="M651.24,-1240.63C651.24,-1240.63 356.58,-1240.63 356.58,-1240.63 352.74,-1240.63 348.91,-1236.8 348.91,-1232.97 348.91,-1232.97 348.91,-1225.3 348.91,-1225.3 348.91,-1221.47 352.74,-1217.63 356.58,-1217.63 356.58,-1217.63 651.24,-1217.63 651.24,-1217.63 655.08,-1217.63 658.91,-1221.47 658.91,-1225.3 658.91,-1225.3 658.91,-1232.97 658.91,-1232.97 658.91,-1236.8 655.08,-1240.63 651.24,-1240.63"/>
<text text-anchor="middle" x="503.91" y="-1225.43" font-family="Arial" font-size="14.00" fill="#c6c5fe">components/Footer/AdvancedFooter/index.tsx</text>
</g>
<!-- components/Footer/AdvancedFooter/index.tsx&#45;&gt;../public/image/ReactCCompiler.svg -->
<g id="edge8" class="edge">
<title>components/Footer/AdvancedFooter/index.tsx&#45;&gt;../public/image/ReactCCompiler.svg</title>
<path fill="none" stroke="#757575" d="M432.97,-1217.2C368.06,-1206.29 272.04,-1190.14 203.89,-1178.68"/>
<polygon fill="#757575" stroke="#757575" points="204.65,-1175.09 194.21,-1176.89 203.49,-1182 204.65,-1175.09"/>
</g>
<!-- components/Footer/BaseFooter/index.tsx -->
<g id="node17" class="node">
<title>components/Footer/BaseFooter/index.tsx</title>
<path fill="none" stroke="#cfffac" d="M1501.99,-1277.5C1501.99,-1277.5 1238.33,-1277.5 1238.33,-1277.5 1234.49,-1277.5 1230.66,-1273.66 1230.66,-1269.83 1230.66,-1269.83 1230.66,-1262.16 1230.66,-1262.16 1230.66,-1258.33 1234.49,-1254.5 1238.33,-1254.5 1238.33,-1254.5 1501.99,-1254.5 1501.99,-1254.5 1505.83,-1254.5 1509.66,-1258.33 1509.66,-1262.16 1509.66,-1262.16 1509.66,-1269.83 1509.66,-1269.83 1509.66,-1273.66 1505.83,-1277.5 1501.99,-1277.5"/>
<text text-anchor="middle" x="1370.16" y="-1262.3" font-family="Arial" font-size="14.00" fill="#cfffac">components/Footer/BaseFooter/index.tsx</text>
</g>
<!-- components/Header/HeaderItem/index.tsx -->
<g id="node18" class="node">
<title>components/Header/HeaderItem/index.tsx</title>
<path fill="none" stroke="#cfffac" d="M1195.1,-1634.21C1195.1,-1634.21 926.43,-1634.21 926.43,-1634.21 922.6,-1634.21 918.76,-1630.38 918.76,-1626.54 918.76,-1626.54 918.76,-1618.88 918.76,-1618.88 918.76,-1615.04 922.6,-1611.21 926.43,-1611.21 926.43,-1611.21 1195.1,-1611.21 1195.1,-1611.21 1198.93,-1611.21 1202.76,-1615.04 1202.76,-1618.88 1202.76,-1618.88 1202.76,-1626.54 1202.76,-1626.54 1202.76,-1630.38 1198.93,-1634.21 1195.1,-1634.21"/>
<text text-anchor="middle" x="1060.76" y="-1619.01" font-family="Arial" font-size="14.00" fill="#cfffac">components/Header/HeaderItem/index.tsx</text>
</g>
<!-- components/Header/HeaderLinks/index.tsx -->
<g id="node19" class="node">
<title>components/Header/HeaderLinks/index.tsx</title>
<path fill="none" stroke="#c6c5fe" d="M777.09,-1617.13C777.09,-1617.13 504.42,-1617.13 504.42,-1617.13 500.59,-1617.13 496.76,-1613.29 496.76,-1609.46 496.76,-1609.46 496.76,-1601.79 496.76,-1601.79 496.76,-1597.96 500.59,-1594.13 504.42,-1594.13 504.42,-1594.13 777.09,-1594.13 777.09,-1594.13 780.92,-1594.13 784.76,-1597.96 784.76,-1601.79 784.76,-1601.79 784.76,-1609.46 784.76,-1609.46 784.76,-1613.29 780.92,-1617.13 777.09,-1617.13"/>
<text text-anchor="middle" x="640.76" y="-1601.93" font-family="Arial" font-size="14.00" fill="#c6c5fe">components/Header/HeaderLinks/index.tsx</text>
</g>
<!-- components/Header/HeaderLinks/index.tsx&#45;&gt;components/Header/HeaderItem/index.tsx -->
<g id="edge9" class="edge">
<title>components/Header/HeaderLinks/index.tsx&#45;&gt;components/Header/HeaderItem/index.tsx</title>
<path fill="none" stroke="#757575" d="M785.01,-1611.49C824.58,-1613.1 867.62,-1614.85 907.67,-1616.48"/>
<polygon fill="#757575" stroke="#757575" points="907.47,-1620.02 917.61,-1616.93 907.76,-1613.02 907.47,-1620.02"/>
</g>
<!-- components/Header/HeaderToggle/index.tsx -->
<g id="node20" class="node">
<title>components/Header/HeaderToggle/index.tsx</title>
<path fill="none" stroke="#cfffac" d="M2114.48,-1567.8C2114.48,-1567.8 1829.82,-1567.8 1829.82,-1567.8 1825.98,-1567.8 1822.15,-1563.96 1822.15,-1560.13 1822.15,-1560.13 1822.15,-1552.46 1822.15,-1552.46 1822.15,-1548.63 1825.98,-1544.8 1829.82,-1544.8 1829.82,-1544.8 2114.48,-1544.8 2114.48,-1544.8 2118.32,-1544.8 2122.15,-1548.63 2122.15,-1552.46 2122.15,-1552.46 2122.15,-1560.13 2122.15,-1560.13 2122.15,-1563.96 2118.32,-1567.8 2114.48,-1567.8"/>
<text text-anchor="middle" x="1972.15" y="-1552.6" font-family="Arial" font-size="14.00" fill="#cfffac">components/Header/HeaderToggle/index.tsx</text>
</g>
<!-- components/Header/Logo/index.tsx -->
<g id="node21" class="node">
<title>components/Header/Logo/index.tsx</title>
<path fill="none" stroke="#cfffac" d="M1596.36,-1616.93C1596.36,-1616.93 1369.69,-1616.93 1369.69,-1616.93 1365.86,-1616.93 1362.03,-1613.1 1362.03,-1609.26 1362.03,-1609.26 1362.03,-1601.6 1362.03,-1601.6 1362.03,-1597.76 1365.86,-1593.93 1369.69,-1593.93 1369.69,-1593.93 1596.36,-1593.93 1596.36,-1593.93 1600.19,-1593.93 1604.03,-1597.76 1604.03,-1601.6 1604.03,-1601.6 1604.03,-1609.26 1604.03,-1609.26 1604.03,-1613.1 1600.19,-1616.93 1596.36,-1616.93"/>
<text text-anchor="middle" x="1483.03" y="-1601.73" font-family="Arial" font-size="14.00" fill="#cfffac">components/Header/Logo/index.tsx</text>
</g>
<!-- components/Header/index.tsx -->
<g id="node22" class="node">
<title>components/Header/index.tsx</title>
<path fill="none" stroke="#c6c5fe" d="M1225.15,-1323.94C1225.15,-1323.94 1035.48,-1323.94 1035.48,-1323.94 1031.65,-1323.94 1027.81,-1320.11 1027.81,-1316.28 1027.81,-1316.28 1027.81,-1308.61 1027.81,-1308.61 1027.81,-1304.78 1031.65,-1300.94 1035.48,-1300.94 1035.48,-1300.94 1225.15,-1300.94 1225.15,-1300.94 1228.98,-1300.94 1232.81,-1304.78 1232.81,-1308.61 1232.81,-1308.61 1232.81,-1316.28 1232.81,-1316.28 1232.81,-1320.11 1228.98,-1323.94 1225.15,-1323.94"/>
<text text-anchor="middle" x="1130.31" y="-1308.74" font-family="Arial" font-size="14.00" fill="#c6c5fe">components/Header/index.tsx</text>
</g>
<!-- components/Header/index.tsx&#45;&gt;components/Header/HeaderLinks/index.tsx -->
<g id="edge10" class="edge">
<title>components/Header/index.tsx&#45;&gt;components/Header/HeaderLinks/index.tsx</title>
<path fill="none" stroke="#757575" d="M1110.52,-1324.3C1034.39,-1369.89 760.3,-1534.04 669.9,-1588.17"/>
<polygon fill="#757575" stroke="#757575" points="668.31,-1585.64 661.53,-1593.78 671.91,-1591.65 668.31,-1585.64"/>
</g>
<!-- components/Header/index.tsx&#45;&gt;components/Header/HeaderToggle/index.tsx -->
<g id="edge11" class="edge">
<title>components/Header/index.tsx&#45;&gt;components/Header/HeaderToggle/index.tsx</title>
<path fill="none" stroke="#757575" d="M1171.49,-1324.37C1311.21,-1364.84 1767.12,-1496.91 1920.94,-1541.46"/>
<polygon fill="#757575" stroke="#757575" points="1919.48,-1544.97 1930.06,-1544.39 1921.42,-1538.25 1919.48,-1544.97"/>
</g>
<!-- components/Header/index.tsx&#45;&gt;components/Header/Logo/index.tsx -->
<g id="edge12" class="edge">
<title>components/Header/index.tsx&#45;&gt;components/Header/Logo/index.tsx</title>
<path fill="none" stroke="#757575" d="M1144.58,-1324.29C1198.97,-1369.47 1393.67,-1531.2 1460.39,-1586.63"/>
<polygon fill="#757575" stroke="#757575" points="1457.66,-1589.74 1467.58,-1593.43 1462.13,-1584.35 1457.66,-1589.74"/>
</g>
<!-- components/Panel/ScreenShotPanel/index.tsx -->
<g id="node23" class="node">
<title>components/Panel/ScreenShotPanel/index.tsx</title>
<path fill="none" stroke="#cfffac" d="M605.33,-465.82C605.33,-465.82 311.66,-465.82 311.66,-465.82 307.83,-465.82 304,-461.99 304,-458.16 304,-458.16 304,-450.49 304,-450.49 304,-446.66 307.83,-442.82 311.66,-442.82 311.66,-442.82 605.33,-442.82 605.33,-442.82 609.16,-442.82 613,-446.66 613,-450.49 613,-450.49 613,-458.16 613,-458.16 613,-461.99 609.16,-465.82 605.33,-465.82"/>
<text text-anchor="middle" x="458.5" y="-450.62" font-family="Arial" font-size="14.00" fill="#cfffac">components/Panel/ScreenShotPanel/index.tsx</text>
</g>
<!-- components/Panel/TimeLinePanel/index.tsx -->
<g id="node24" class="node">
<title>components/Panel/TimeLinePanel/index.tsx</title>
<path fill="none" stroke="#c6c5fe" d="M869.58,-358.36C869.58,-358.36 591.91,-358.36 591.91,-358.36 588.08,-358.36 584.25,-354.53 584.25,-350.7 584.25,-350.7 584.25,-343.03 584.25,-343.03 584.25,-339.2 588.08,-335.36 591.91,-335.36 591.91,-335.36 869.58,-335.36 869.58,-335.36 873.41,-335.36 877.25,-339.2 877.25,-343.03 877.25,-343.03 877.25,-350.7 877.25,-350.7 877.25,-354.53 873.41,-358.36 869.58,-358.36"/>
<text text-anchor="middle" x="730.75" y="-343.16" font-family="Arial" font-size="14.00" fill="#c6c5fe">components/Panel/TimeLinePanel/index.tsx</text>
</g>
<!-- components/Panel/TimeLinePanel/index.tsx&#45;&gt;components/Card/card&#45;body.tsx -->
<g id="edge13" class="edge">
<title>components/Panel/TimeLinePanel/index.tsx&#45;&gt;components/Card/card&#45;body.tsx</title>
<path fill="none" stroke="#757575" d="M724.34,-335.08C699.12,-288.72 606.53,-118.47 573.67,-58.06"/>
<polygon fill="#757575" stroke="#757575" points="576.28,-56.53 568.42,-49.42 570.13,-59.87 576.28,-56.53"/>
</g>
<!-- components/Panel/TimeLinePanel/index.tsx&#45;&gt;components/Card/card&#45;header.tsx -->
<g id="edge14" class="edge">
<title>components/Panel/TimeLinePanel/index.tsx&#45;&gt;components/Card/card&#45;header.tsx</title>
<path fill="none" stroke="#757575" d="M706.01,-334.98C613.53,-290.55 287.91,-134.12 180.84,-82.68"/>
<polygon fill="#757575" stroke="#757575" points="182.71,-79.22 172.18,-78.04 179.68,-85.52 182.71,-79.22"/>
</g>
<!-- components/Panel/TimeLinePanel/index.tsx&#45;&gt;components/Card/card.tsx -->
<g id="edge15" class="edge">
<title>components/Panel/TimeLinePanel/index.tsx&#45;&gt;components/Card/card.tsx</title>
<path fill="none" stroke="#757575" d="M676.57,-358.86C562,-384.22 295.54,-443.2 172.46,-470.45"/>
<polygon fill="#757575" stroke="#757575" points="172.08,-467.17 163.07,-472.75 173.59,-474 172.08,-467.17"/>
</g>
<!-- components/SideMenu/app.tsx -->
<g id="node25" class="node">
<title>components/SideMenu/app.tsx</title>
<path fill="none" stroke="#c6c5fe" d="M1816.61,-899.65C1816.61,-899.65 1619.95,-899.65 1619.95,-899.65 1616.11,-899.65 1612.28,-895.82 1612.28,-891.99 1612.28,-891.99 1612.28,-884.32 1612.28,-884.32 1612.28,-880.49 1616.11,-876.65 1619.95,-876.65 1619.95,-876.65 1816.61,-876.65 1816.61,-876.65 1820.45,-876.65 1824.28,-880.49 1824.28,-884.32 1824.28,-884.32 1824.28,-891.99 1824.28,-891.99 1824.28,-895.82 1820.45,-899.65 1816.61,-899.65"/>
<text text-anchor="middle" x="1718.28" y="-884.45" font-family="Arial" font-size="14.00" fill="#c6c5fe">components/SideMenu/app.tsx</text>
</g>
<!-- components/SideMenu/commons.tsx -->
<g id="node26" class="node">
<title>components/SideMenu/commons.tsx</title>
<path fill="none" stroke="#cfffac" d="M2152.67,-1087.32C2152.67,-1087.32 1917.01,-1087.32 1917.01,-1087.32 1913.17,-1087.32 1909.34,-1083.49 1909.34,-1079.66 1909.34,-1079.66 1909.34,-1071.99 1909.34,-1071.99 1909.34,-1068.16 1913.17,-1064.32 1917.01,-1064.32 1917.01,-1064.32 2152.67,-1064.32 2152.67,-1064.32 2156.51,-1064.32 2160.34,-1068.16 2160.34,-1071.99 2160.34,-1071.99 2160.34,-1079.66 2160.34,-1079.66 2160.34,-1083.49 2156.51,-1087.32 2152.67,-1087.32"/>
<text text-anchor="middle" x="2034.84" y="-1072.12" font-family="Arial" font-size="14.00" fill="#cfffac">components/SideMenu/commons.tsx</text>
</g>
<!-- components/SideMenu/app.tsx&#45;&gt;components/SideMenu/commons.tsx -->
<g id="edge16" class="edge">
<title>components/SideMenu/app.tsx&#45;&gt;components/SideMenu/commons.tsx</title>
<path fill="none" stroke="#757575" d="M1738.08,-899.89C1792.03,-931.87 1941.8,-1020.66 2005.53,-1058.45"/>
<polygon fill="#757575" stroke="#757575" points="2003.25,-1061.76 2013.64,-1063.85 2006.82,-1055.74 2003.25,-1061.76"/>
</g>
<!-- components/SideMenu/index.tsx -->
<g id="node27" class="node">
<title>components/SideMenu/index.tsx</title>
<path fill="none" stroke="#c6c5fe" d="M1770.79,-1251.52C1770.79,-1251.52 1564.12,-1251.52 1564.12,-1251.52 1560.29,-1251.52 1556.46,-1247.69 1556.46,-1243.85 1556.46,-1243.85 1556.46,-1236.19 1556.46,-1236.19 1556.46,-1232.35 1560.29,-1228.52 1564.12,-1228.52 1564.12,-1228.52 1770.79,-1228.52 1770.79,-1228.52 1774.62,-1228.52 1778.46,-1232.35 1778.46,-1236.19 1778.46,-1236.19 1778.46,-1243.85 1778.46,-1243.85 1778.46,-1247.69 1774.62,-1251.52 1770.79,-1251.52"/>
<text text-anchor="middle" x="1667.46" y="-1236.32" font-family="Arial" font-size="14.00" fill="#c6c5fe">components/SideMenu/index.tsx</text>
</g>
<!-- components/SideMenu/index.tsx&#45;&gt;components/SideMenu/commons.tsx -->
<g id="edge17" class="edge">
<title>components/SideMenu/index.tsx&#45;&gt;components/SideMenu/commons.tsx</title>
<path fill="none" stroke="#757575" d="M1694.17,-1228.08C1758.99,-1199.11 1924.66,-1125.07 1998.44,-1092.09"/>
<polygon fill="#757575" stroke="#757575" points="1999.52,-1094.99 2007.22,-1087.72 1996.66,-1088.6 1999.52,-1094.99"/>
</g>
<!-- index.tsx -->
<g id="node28" class="node">
<title>index.tsx</title>
<path fill="none" stroke="#c6c5fe" d="M1232.38,-1053.55C1232.38,-1053.55 1175.71,-1053.55 1175.71,-1053.55 1171.88,-1053.55 1168.04,-1049.71 1168.04,-1045.88 1168.04,-1045.88 1168.04,-1038.21 1168.04,-1038.21 1168.04,-1034.38 1171.88,-1030.55 1175.71,-1030.55 1175.71,-1030.55 1232.38,-1030.55 1232.38,-1030.55 1236.21,-1030.55 1240.04,-1034.38 1240.04,-1038.21 1240.04,-1038.21 1240.04,-1045.88 1240.04,-1045.88 1240.04,-1049.71 1236.21,-1053.55 1232.38,-1053.55"/>
<text text-anchor="middle" x="1204.04" y="-1038.35" font-family="Arial" font-size="14.00" fill="#c6c5fe">index.tsx</text>
</g>
<!-- index.tsx&#45;&gt;components/Header/index.tsx -->
<g id="edge18" class="edge">
<title>index.tsx&#45;&gt;components/Header/index.tsx</title>
<path fill="none" stroke="#757575" d="M1200.78,-1054.01C1189.39,-1095.81 1151.24,-1235.68 1136.35,-1290.32"/>
<polygon fill="#757575" stroke="#757575" points="1132.79,-1289.05 1133.54,-1299.61 1139.55,-1290.89 1132.79,-1289.05"/>
</g>
<!-- routes.tsx -->
<g id="node29" class="node">
<title>routes.tsx</title>
<path fill="none" stroke="#c6c5fe" d="M1059.63,-917.98C1059.63,-917.98 996.96,-917.98 996.96,-917.98 993.13,-917.98 989.29,-914.14 989.29,-910.31 989.29,-910.31 989.29,-902.64 989.29,-902.64 989.29,-898.81 993.13,-894.98 996.96,-894.98 996.96,-894.98 1059.63,-894.98 1059.63,-894.98 1063.46,-894.98 1067.29,-898.81 1067.29,-902.64 1067.29,-902.64 1067.29,-910.31 1067.29,-910.31 1067.29,-914.14 1063.46,-917.98 1059.63,-917.98"/>
<text text-anchor="middle" x="1028.29" y="-902.78" font-family="Arial" font-size="14.00" fill="#c6c5fe">routes.tsx</text>
</g>
<!-- index.tsx&#45;&gt;routes.tsx -->
<g id="edge19" class="edge">
<title>index.tsx&#45;&gt;routes.tsx</title>
<path fill="none" stroke="#757575" d="M1188.76,-1030.25C1158.11,-1006.62 1088.99,-953.29 1052.27,-924.97"/>
<polygon fill="#757575" stroke="#757575" points="1054.73,-921.68 1044.67,-918.34 1050.45,-927.22 1054.73,-921.68"/>
</g>
<!-- routes.tsx&#45;&gt;compiler.tsx -->
<g id="edge36" class="edge">
<title>routes.tsx&#45;&gt;compiler.tsx</title>
<path fill="none" stroke="#757575" d="M1031.78,-894.54C1046.16,-845.31 1100.95,-657.69 1119.83,-593.03"/>
<polygon fill="#757575" stroke="#757575" points="1123.39,-594.35 1122.83,-583.77 1116.67,-592.38 1123.39,-594.35"/>
</g>
<!-- layouts/HomeLayout/index.tsx -->
<g id="node30" class="node">
<title>layouts/HomeLayout/index.tsx</title>
<path fill="none" stroke="#c6c5fe" d="M907.24,-843.43C907.24,-843.43 718.58,-843.43 718.58,-843.43 714.74,-843.43 710.91,-839.6 710.91,-835.76 710.91,-835.76 710.91,-828.1 710.91,-828.1 710.91,-824.26 714.74,-820.43 718.58,-820.43 718.58,-820.43 907.24,-820.43 907.24,-820.43 911.08,-820.43 914.91,-824.26 914.91,-828.1 914.91,-828.1 914.91,-835.76 914.91,-835.76 914.91,-839.6 911.08,-843.43 907.24,-843.43"/>
<text text-anchor="middle" x="812.91" y="-828.23" font-family="Arial" font-size="14.00" fill="#c6c5fe">layouts/HomeLayout/index.tsx</text>
</g>
<!-- routes.tsx&#45;&gt;layouts/HomeLayout/index.tsx -->
<g id="edge37" class="edge">
<title>routes.tsx&#45;&gt;layouts/HomeLayout/index.tsx</title>
<path fill="none" stroke="#757575" d="M993.69,-894.5C956.79,-881.73 898.23,-861.46 857.8,-847.47"/>
<polygon fill="#757575" stroke="#757575" points="859.02,-843.84 848.43,-843.88 856.74,-850.45 859.02,-843.84"/>
</g>
<!-- layouts/MainLayout/index.tsx -->
<g id="node31" class="node">
<title>layouts/MainLayout/index.tsx</title>
<path fill="none" stroke="#c6c5fe" d="M1536.93,-1017.27C1536.93,-1017.27 1357.26,-1017.27 1357.26,-1017.27 1353.43,-1017.27 1349.6,-1013.43 1349.6,-1009.6 1349.6,-1009.6 1349.6,-1001.93 1349.6,-1001.93 1349.6,-998.1 1353.43,-994.27 1357.26,-994.27 1357.26,-994.27 1536.93,-994.27 1536.93,-994.27 1540.76,-994.27 1544.6,-998.1 1544.6,-1001.93 1544.6,-1001.93 1544.6,-1009.6 1544.6,-1009.6 1544.6,-1013.43 1540.76,-1017.27 1536.93,-1017.27"/>
<text text-anchor="middle" x="1447.1" y="-1002.07" font-family="Arial" font-size="14.00" fill="#c6c5fe">layouts/MainLayout/index.tsx</text>
</g>
<!-- routes.tsx&#45;&gt;layouts/MainLayout/index.tsx -->
<g id="edge38" class="edge">
<title>routes.tsx&#45;&gt;layouts/MainLayout/index.tsx</title>
<path fill="none" stroke="#757575" d="M1067.69,-915.82C1141,-933.2 1298.78,-970.6 1386.01,-991.28"/>
<polygon fill="#757575" stroke="#757575" points="1385.01,-994.88 1395.54,-993.78 1386.62,-988.07 1385.01,-994.88"/>
</g>
<!-- pages/HelpsPage/index.tsx -->
<g id="node32" class="node">
<title>pages/HelpsPage/index.tsx</title>
<path fill="none" stroke="#c6c5fe" d="M1301.5,-812.68C1301.5,-812.68 1126.84,-812.68 1126.84,-812.68 1123,-812.68 1119.17,-808.85 1119.17,-805.02 1119.17,-805.02 1119.17,-797.35 1119.17,-797.35 1119.17,-793.52 1123,-789.68 1126.84,-789.68 1126.84,-789.68 1301.5,-789.68 1301.5,-789.68 1305.34,-789.68 1309.17,-793.52 1309.17,-797.35 1309.17,-797.35 1309.17,-805.02 1309.17,-805.02 1309.17,-808.85 1305.34,-812.68 1301.5,-812.68"/>
<text text-anchor="middle" x="1214.17" y="-797.48" font-family="Arial" font-size="14.00" fill="#c6c5fe">pages/HelpsPage/index.tsx</text>
</g>
<!-- routes.tsx&#45;&gt;pages/HelpsPage/index.tsx -->
<g id="edge39" class="edge">
<title>routes.tsx&#45;&gt;pages/HelpsPage/index.tsx</title>
<path fill="none" stroke="#757575" d="M1049.25,-894.6C1082.03,-876.04 1145.56,-840.05 1183.49,-818.57"/>
<polygon fill="#757575" stroke="#757575" points="1185.02,-821.15 1192,-813.18 1181.57,-815.06 1185.02,-821.15"/>
</g>
<!-- pages/HomePage/index.tsx -->
<g id="node33" class="node">
<title>pages/HomePage/index.tsx</title>
<path fill="none" stroke="#c6c5fe" d="M753.68,-658.85C753.68,-658.85 578.02,-658.85 578.02,-658.85 574.18,-658.85 570.35,-655.02 570.35,-651.18 570.35,-651.18 570.35,-643.52 570.35,-643.52 570.35,-639.68 574.18,-635.85 578.02,-635.85 578.02,-635.85 753.68,-635.85 753.68,-635.85 757.52,-635.85 761.35,-639.68 761.35,-643.52 761.35,-643.52 761.35,-651.18 761.35,-651.18 761.35,-655.02 757.52,-658.85 753.68,-658.85"/>
<text text-anchor="middle" x="665.85" y="-643.65" font-family="Arial" font-size="14.00" fill="#c6c5fe">pages/HomePage/index.tsx</text>
</g>
<!-- routes.tsx&#45;&gt;pages/HomePage/index.tsx -->
<g id="edge40" class="edge">
<title>routes.tsx&#45;&gt;pages/HomePage/index.tsx</title>
<path fill="none" stroke="#757575" d="M1011.78,-894.67C953.99,-853.36 760.64,-715.12 691.06,-665.37"/>
<polygon fill="#757575" stroke="#757575" points="693.63,-662.19 683.46,-659.23 689.56,-667.89 693.63,-662.19"/>
</g>
<!-- pages/TestsPage/index.tsx -->
<g id="node35" class="node">
<title>pages/TestsPage/index.tsx</title>
<path fill="none" stroke="#c6c5fe" d="M1051.81,-1103.13C1051.81,-1103.13 878.14,-1103.13 878.14,-1103.13 874.31,-1103.13 870.47,-1099.3 870.47,-1095.46 870.47,-1095.46 870.47,-1087.8 870.47,-1087.8 870.47,-1083.96 874.31,-1080.13 878.14,-1080.13 878.14,-1080.13 1051.81,-1080.13 1051.81,-1080.13 1055.64,-1080.13 1059.47,-1083.96 1059.47,-1087.8 1059.47,-1087.8 1059.47,-1095.46 1059.47,-1095.46 1059.47,-1099.3 1055.64,-1103.13 1051.81,-1103.13"/>
<text text-anchor="middle" x="964.97" y="-1087.93" font-family="Arial" font-size="14.00" fill="#c6c5fe">pages/TestsPage/index.tsx</text>
</g>
<!-- routes.tsx&#45;&gt;pages/TestsPage/index.tsx -->
<g id="edge41" class="edge">
<title>routes.tsx&#45;&gt;pages/TestsPage/index.tsx</title>
<path fill="none" stroke="#757575" d="M1024.24,-918.34C1013.8,-948.85 985.91,-1030.4 972.45,-1069.77"/>
<polygon fill="#757575" stroke="#757575" points="968.84,-1068.51 968.91,-1079.1 975.46,-1070.77 968.84,-1068.51"/>
</g>
<!-- pages/TimeLinePage/index.tsx -->
<g id="node36" class="node">
<title>pages/TimeLinePage/index.tsx</title>
<path fill="none" stroke="#c6c5fe" d="M986.07,-587.37C986.07,-587.37 789.4,-587.37 789.4,-587.37 785.57,-587.37 781.73,-583.54 781.73,-579.7 781.73,-579.7 781.73,-572.04 781.73,-572.04 781.73,-568.2 785.57,-564.37 789.4,-564.37 789.4,-564.37 986.07,-564.37 986.07,-564.37 989.9,-564.37 993.73,-568.2 993.73,-572.04 993.73,-572.04 993.73,-579.7 993.73,-579.7 993.73,-583.54 989.9,-587.37 986.07,-587.37"/>
<text text-anchor="middle" x="887.73" y="-572.17" font-family="Arial" font-size="14.00" fill="#c6c5fe">pages/TimeLinePage/index.tsx</text>
</g>
<!-- routes.tsx&#45;&gt;pages/TimeLinePage/index.tsx -->
<g id="edge42" class="edge">
<title>routes.tsx&#45;&gt;pages/TimeLinePage/index.tsx</title>
<path fill="none" stroke="#757575" d="M1023.29,-894.71C1002.67,-846.21 924.09,-661.39 896.99,-597.64"/>
<polygon fill="#757575" stroke="#757575" points="899.96,-596.67 892.82,-588.84 893.51,-599.41 899.96,-596.67"/>
</g>
<!-- layouts/HomeLayout/index.tsx&#45;&gt;components/Footer/AdvancedFooter/index.tsx -->
<g id="edge20" class="edge">
<title>layouts/HomeLayout/index.tsx&#45;&gt;components/Footer/AdvancedFooter/index.tsx</title>
<path fill="none" stroke="#757575" d="M803.66,-843.82C760.13,-899.78 575.4,-1137.23 519.8,-1208.7"/>
<polygon fill="#757575" stroke="#757575" points="516.5,-1206.25 513.12,-1216.29 522.02,-1210.55 516.5,-1206.25"/>
</g>
<!-- layouts/MainLayout/index.tsx&#45;&gt;components/Separator/index.tsx -->
<g id="edge22" class="edge">
<title>layouts/MainLayout/index.tsx&#45;&gt;components/Separator/index.tsx</title>
<path fill="none" stroke="#757575" d="M1428.1,-993.77C1359.02,-950.15 1120.94,-799.83 1039.24,-748.25"/>
<polygon fill="#757575" stroke="#757575" points="1041.4,-744.84 1031.07,-742.46 1037.66,-750.76 1041.4,-744.84"/>
</g>
<!-- layouts/MainLayout/index.tsx&#45;&gt;components/Footer/BaseFooter/index.tsx -->
<g id="edge21" class="edge">
<title>layouts/MainLayout/index.tsx&#45;&gt;components/Footer/BaseFooter/index.tsx</title>
<path fill="none" stroke="#757575" d="M1443.59,-1017.63C1431.65,-1058.01 1392.44,-1190.64 1376.74,-1243.73"/>
<polygon fill="#757575" stroke="#757575" points="1373.17,-1242.49 1373.69,-1253.07 1379.88,-1244.47 1373.17,-1242.49"/>
</g>
<!-- layouts/MainLayout/index.tsx&#45;&gt;components/SideMenu/app.tsx -->
<g id="edge23" class="edge">
<title>layouts/MainLayout/index.tsx&#45;&gt;components/SideMenu/app.tsx</title>
<path fill="none" stroke="#757575" d="M1474.59,-993.84C1523.42,-972.67 1625.32,-928.47 1680.63,-904.48"/>
<polygon fill="#757575" stroke="#757575" points="1681.93,-907.3 1689.71,-900.11 1679.14,-900.88 1681.93,-907.3"/>
</g>
<!-- layouts/MainLayout/index.tsx&#45;&gt;components/SideMenu/index.tsx -->
<g id="edge24" class="edge">
<title>layouts/MainLayout/index.tsx&#45;&gt;components/SideMenu/index.tsx</title>
<path fill="none" stroke="#757575" d="M1458.33,-1017.71C1493.91,-1055.54 1604.43,-1173.02 1648.77,-1220.16"/>
<polygon fill="#757575" stroke="#757575" points="1645.85,-1222.22 1655.25,-1227.11 1650.95,-1217.42 1645.85,-1222.22"/>
</g>
<!-- pages/HelpsPage/index.tsx&#45;&gt;components/Alert/index.tsx -->
<g id="edge25" class="edge">
<title>pages/HelpsPage/index.tsx&#45;&gt;components/Alert/index.tsx</title>
<path fill="none" stroke="#757575" d="M1309.56,-794.23C1310.75,-794.15 1311.94,-794.06 1313.13,-793.97"/>
<polygon fill="#757575" stroke="#757575" points="1313.16,-797.41 1322.87,-793.19 1312.65,-790.43 1313.16,-797.41"/>
</g>
<!-- pages/HelpsPage/index.tsx&#45;&gt;components/Separator/index.tsx -->
<g id="edge26" class="edge">
<title>pages/HelpsPage/index.tsx&#45;&gt;components/Separator/index.tsx</title>
<path fill="none" stroke="#757575" d="M1179.78,-789.23C1145.61,-777.35 1093.05,-759.07 1055.76,-746.11"/>
<polygon fill="#757575" stroke="#757575" points="1057.28,-742.58 1046.68,-742.61 1054.98,-749.2 1057.28,-742.58"/>
</g>
<!-- pages/HomePage/index.tsx&#45;&gt;../public/image/Assembly.png -->
<g id="edge27" class="edge">
<title>pages/HomePage/index.tsx&#45;&gt;../public/image/Assembly.png</title>
<path fill="none" stroke="#757575" d="M629.28,-659.31C534.34,-690.36 280.13,-773.5 174.56,-808.02"/>
<polygon fill="#757575" stroke="#757575" points="173.64,-804.97 165.23,-811.41 175.82,-811.62 173.64,-804.97"/>
</g>
<!-- pages/HomePage/index.tsx&#45;&gt;../public/image/Quadruple.png -->
<g id="edge28" class="edge">
<title>pages/HomePage/index.tsx&#45;&gt;../public/image/Quadruple.png</title>
<path fill="none" stroke="#757575" d="M655.27,-659.19C624.6,-693.53 535.33,-793.46 496.97,-836.4"/>
<polygon fill="#757575" stroke="#757575" points="494.85,-833.64 490.8,-843.43 500.07,-838.3 494.85,-833.64"/>
</g>
<!-- pages/HomePage/index.tsx&#45;&gt;components/Separator/index.tsx -->
<g id="edge30" class="edge">
<title>pages/HomePage/index.tsx&#45;&gt;components/Separator/index.tsx</title>
<path fill="none" stroke="#757575" d="M715.37,-659.29C777.64,-674.31 884.5,-700.09 951.38,-716.22"/>
<polygon fill="#757575" stroke="#757575" points="950.22,-719.78 960.76,-718.72 951.86,-712.97 950.22,-719.78"/>
</g>
<!-- pages/HomePage/index.tsx&#45;&gt;components/Panel/ScreenShotPanel/index.tsx -->
<g id="edge29" class="edge">
<title>pages/HomePage/index.tsx&#45;&gt;components/Panel/ScreenShotPanel/index.tsx</title>
<path fill="none" stroke="#757575" d="M653.19,-635.56C618.56,-603.33 521.99,-513.43 479.28,-473.67"/>
<polygon fill="#757575" stroke="#757575" points="481.96,-471.45 472.25,-467.2 477.19,-476.58 481.96,-471.45"/>
</g>
<!-- pages/TestsPage/common.tsx -->
<g id="node34" class="node">
<title>pages/TestsPage/common.tsx</title>
<path fill="none" stroke="#cfffac" d="M815.1,-1046.9C815.1,-1046.9 619.43,-1046.9 619.43,-1046.9 615.6,-1046.9 611.76,-1043.07 611.76,-1039.23 611.76,-1039.23 611.76,-1031.57 611.76,-1031.57 611.76,-1027.73 615.6,-1023.9 619.43,-1023.9 619.43,-1023.9 815.1,-1023.9 815.1,-1023.9 818.93,-1023.9 822.76,-1027.73 822.76,-1031.57 822.76,-1031.57 822.76,-1039.23 822.76,-1039.23 822.76,-1043.07 818.93,-1046.9 815.1,-1046.9"/>
<text text-anchor="middle" x="717.26" y="-1031.7" font-family="Arial" font-size="14.00" fill="#cfffac">pages/TestsPage/common.tsx</text>
</g>
<!-- pages/TestsPage/index.tsx&#45;&gt;components/Separator/index.tsx -->
<g id="edge32" class="edge">
<title>pages/TestsPage/index.tsx&#45;&gt;components/Separator/index.tsx</title>
<path fill="none" stroke="#757575" d="M966.47,-1080.03C973.06,-1028.81 999.66,-822.39 1008.55,-753.34"/>
<polygon fill="#757575" stroke="#757575" points="1012.15,-753.81 1009.95,-743.45 1005.2,-752.92 1012.15,-753.81"/>
</g>
<!-- pages/TestsPage/index.tsx&#45;&gt;components/Features/FeatureGrid/index.tsx -->
<g id="edge31" class="edge">
<title>pages/TestsPage/index.tsx&#45;&gt;components/Features/FeatureGrid/index.tsx</title>
<path fill="none" stroke="#757575" d="M958.16,-1103.39C937.31,-1139.42 874.15,-1248.55 847.25,-1295.03"/>
<polygon fill="#757575" stroke="#757575" points="843.78,-1293.04 841.8,-1303.44 849.84,-1296.54 843.78,-1293.04"/>
</g>
<!-- pages/TestsPage/index.tsx&#45;&gt;pages/TestsPage/common.tsx -->
<g id="edge33" class="edge">
<title>pages/TestsPage/index.tsx&#45;&gt;pages/TestsPage/common.tsx</title>
<path fill="none" stroke="#757575" d="M912.14,-1079.63C873.66,-1070.9 821.37,-1059.03 780.64,-1049.79"/>
<polygon fill="#757575" stroke="#757575" points="781.54,-1046.18 771.02,-1047.37 779.99,-1053 781.54,-1046.18"/>
</g>
<!-- pages/TimeLinePage/index.tsx&#45;&gt;components/Separator/index.tsx -->
<g id="edge35" class="edge">
<title>pages/TimeLinePage/index.tsx&#45;&gt;components/Separator/index.tsx</title>
<path fill="none" stroke="#757575" d="M897.24,-587.76C918.34,-614.17 969.31,-677.95 995.43,-710.65"/>
<polygon fill="#757575" stroke="#757575" points="993.12,-712.36 1002.1,-717.99 998.59,-707.99 993.12,-712.36"/>
</g>
<!-- pages/TimeLinePage/index.tsx&#45;&gt;components/Panel/TimeLinePanel/index.tsx -->
<g id="edge34" class="edge">
<title>pages/TimeLinePage/index.tsx&#45;&gt;components/Panel/TimeLinePanel/index.tsx</title>
<path fill="none" stroke="#757575" d="M879.51,-563.88C854.19,-526.93 777.12,-414.51 745.02,-367.68"/>
<polygon fill="#757575" stroke="#757575" points="747.43,-366.01 738.89,-359.74 741.65,-369.96 747.43,-366.01"/>
</g>
<!-- utils/classes/astnode&#45;class.ts&#45;&gt;utils/classes/localvariable&#45;class.ts -->
<g id="edge43" class="edge">
<title>utils/classes/astnode&#45;class.ts&#45;&gt;utils/classes/localvariable&#45;class.ts</title>
<path fill="none" stroke="#757575" d="M1431.89,-316.55C1457.21,-270.14 1550.22,-99.73 1583.23,-39.26"/>
<polygon fill="#757575" stroke="#757575" points="1586.78,-41.06 1588.5,-30.6 1580.63,-37.71 1586.78,-41.06"/>
</g>
<!-- utils/classes/astnode&#45;class.ts&#45;&gt;utils/classes/typedef&#45;class.ts -->
<g id="edge44" class="edge">
<title>utils/classes/astnode&#45;class.ts&#45;&gt;utils/classes/typedef&#45;class.ts</title>
<path fill="none" stroke="#757575" d="M1455.82,-316.38C1553.89,-277.78 1862.12,-156.43 1973.08,-112.75"/>
<polygon fill="#757575" stroke="#757575" points="1974.17,-115.69 1982.19,-108.77 1971.6,-109.17 1974.17,-115.69"/>
</g>
<!-- utils/classes/astnode&#45;class.ts&#45;&gt;utils/commons.ts -->
<g id="edge45" class="edge">
<title>utils/classes/astnode&#45;class.ts&#45;&gt;utils/commons.ts</title>
<path fill="none" stroke="#757575" d="M1461.5,-340.32C1507.99,-352.02 1589.94,-368.91 1649.54,-379.35"/>
<polygon fill="#757575" stroke="#757575" points="1648.57,-382.91 1659.02,-381.16 1649.76,-376.01 1648.57,-382.91"/>
</g>
<!-- utils/classes/localvariable&#45;class.ts&#45;&gt;utils/classes/typedef&#45;class.ts -->
<g id="edge48" class="edge">
<title>utils/classes/localvariable&#45;class.ts&#45;&gt;utils/classes/typedef&#45;class.ts</title>
<path fill="none" stroke="#757575" d="M1658.04,-29.72C1733.53,-43.99 1859.72,-67.84 1939.63,-82.94"/>
<polygon fill="#757575" stroke="#757575" points="1938.63,-86.51 1949.11,-84.92 1939.93,-79.63 1938.63,-86.51"/>
</g>
<!-- utils/classes/typedef&#45;class.ts&#45;&gt;utils/commons.ts -->
<g id="edge51" class="edge">
<title>utils/classes/typedef&#45;class.ts&#45;&gt;utils/commons.ts</title>
<path fill="none" stroke="#757575" d="M1997.13,-108.72C1945.65,-153.44 1787.44,-311.33 1737.31,-367.78"/>
<polygon fill="#757575" stroke="#757575" points="1734.14,-365.09 1730.23,-374.94 1739.43,-369.68 1734.14,-365.09"/>
</g>
<!-- utils/classes/typedef&#45;class.ts&#45;&gt;utils/classes/token&#45;class.ts -->
<g id="edge50" class="edge">
<title>utils/classes/typedef&#45;class.ts&#45;&gt;utils/classes/token&#45;class.ts</title>
<path fill="none" stroke="#757575" d="M2013.78,-108.69C2016.06,-175.23 2027.27,-503.56 2030.33,-593.04"/>
<polygon fill="#757575" stroke="#757575" points="2026.87,-593.15 2030.7,-603.03 2033.86,-592.91 2026.87,-593.15"/>
</g>
<!-- utils/commons.ts&#45;&gt;utils/logger.ts -->
<g id="edge56" class="edge">
<title>utils/commons.ts&#45;&gt;utils/logger.ts</title>
<path fill="none" stroke="#757575" d="M1660.2,-384.82C1518.7,-377.7 1172.66,-360.27 1031.73,-353.17"/>
<polygon fill="#757575" stroke="#757575" points="1032.31,-349.65 1022.15,-352.64 1031.96,-356.64 1032.31,-349.65"/>
</g>
<!-- utils/commons.ts&#45;&gt;utils/classes/astnode&#45;class.ts -->
<g id="edge52" class="edge">
<title>utils/commons.ts&#45;&gt;utils/classes/astnode&#45;class.ts</title>
<path fill="none" stroke="#757575" d="M1685.97,-375.95C1646.75,-366.08 1582.3,-352.52 1527.31,-342.25"/>
<polygon fill="#757575" stroke="#757575" points="1528.28,-338.69 1517.81,-340.31 1527,-345.57 1528.28,-338.69"/>
</g>
<!-- utils/commons.ts&#45;&gt;utils/classes/localvariable&#45;class.ts -->
<g id="edge53" class="edge">
<title>utils/commons.ts&#45;&gt;utils/classes/localvariable&#45;class.ts</title>
<path fill="none" stroke="#757575" d="M1717.93,-376.04C1699.78,-323.17 1626.29,-109.11 1602.45,-39.67"/>
<polygon fill="#757575" stroke="#757575" points="1605.5,-38.79 1598.94,-30.47 1598.88,-41.06 1605.5,-38.79"/>
</g>
<!-- utils/commons.ts&#45;&gt;utils/classes/typedef&#45;class.ts -->
<g id="edge55" class="edge">
<title>utils/commons.ts&#45;&gt;utils/classes/typedef&#45;class.ts</title>
<path fill="none" stroke="#757575" d="M1738.27,-376.1C1789.74,-331.38 1947.95,-173.49 1998.08,-117.03"/>
<polygon fill="#757575" stroke="#757575" points="2001.25,-119.72 2005.16,-109.88 1995.96,-115.13 2001.25,-119.72"/>
</g>
<!-- utils/commons.ts&#45;&gt;utils/classes/token&#45;class.ts -->
<g id="edge54" class="edge">
<title>utils/commons.ts&#45;&gt;utils/classes/token&#45;class.ts</title>
<path fill="none" stroke="#757575" d="M1733.17,-399.77C1776.45,-437.46 1933.31,-553.49 2000.39,-598.06"/>
<polygon fill="#757575" stroke="#757575" points="1997.96,-601.31 2008.24,-603.86 2001.8,-595.45 1997.96,-601.31"/>
</g>
<!-- utils/classes/functionnode&#45;class.ts&#45;&gt;utils/classes/astnode&#45;class.ts -->
<g id="edge46" class="edge">
<title>utils/classes/functionnode&#45;class.ts&#45;&gt;utils/classes/astnode&#45;class.ts</title>
<path fill="none" stroke="#757575" d="M1244.07,-23.15C1271.98,-70.12 1376.47,-245.92 1412.86,-307.15"/>
<polygon fill="#757575" stroke="#757575" points="1410.35,-308.78 1418.46,-315.58 1416.36,-305.2 1410.35,-308.78"/>
</g>
<!-- utils/classes/functionnode&#45;class.ts&#45;&gt;utils/classes/localvariable&#45;class.ts -->
<g id="edge47" class="edge">
<title>utils/classes/functionnode&#45;class.ts&#45;&gt;utils/classes/localvariable&#45;class.ts</title>
<path fill="none" stroke="#757575" d="M1353.31,-13.55C1390.61,-14.2 1432.08,-14.93 1469.99,-15.6"/>
<polygon fill="#757575" stroke="#757575" points="1469.52,-19.11 1479.58,-15.79 1469.64,-12.11 1469.52,-19.11"/>
</g>
<!-- utils/classes/token&#45;class.ts&#45;&gt;utils/commons.ts -->
<g id="edge49" class="edge">
<title>utils/classes/token&#45;class.ts&#45;&gt;utils/commons.ts</title>
<path fill="none" stroke="#757575" d="M2019.94,-603.75C1976.67,-566.06 1819.81,-450.04 1752.72,-405.46"/>
<polygon fill="#757575" stroke="#757575" points="1755.16,-402.22 1744.87,-399.66 1751.32,-408.07 1755.16,-402.22"/>
</g>
<!-- utils/quadruple.ts&#45;&gt;utils/classes/astnode&#45;class.ts -->
<g id="edge72" class="edge">
<title>utils/quadruple.ts&#45;&gt;utils/classes/astnode&#45;class.ts</title>
<path fill="none" stroke="#757575" d="M929.15,-31.45C1008.52,-78.93 1302.45,-254.76 1396.39,-310.96"/>
<polygon fill="#757575" stroke="#757575" points="1394.21,-314.33 1404.59,-316.46 1397.81,-308.32 1394.21,-314.33"/>
</g>
</g>
</svg>
