<svg xmlns="http://www.w3.org/2000/svg" width="602pt" height="602pt" version="1.0" viewBox="0 0 602 602">
<path d="M244 227.992c-6.354 1.017-20.702 5.925-29.573 10.116-3.366 1.591-6.5 2.892-6.964 2.892-.464 0-4.921-2.006-9.903-4.457-5.697-2.803-12.248-5.101-17.649-6.192-8.162-1.649-8.909-1.648-15.046.013-11.449 3.099-17.688 11.427-18.652 24.899-.56 7.828 1.233 20.024 3.994 27.166l1.905 4.929-2.254 3.048c-14.913 20.17-21.874 37.051-21.836 52.949.033 13.88 4.42 21.657 15.478 27.438 4.308 2.252 6.536 2.669 16.096 3.013 9.079.327 12.531.012 19-1.734 9.522-2.571 18.538-6.056 26.088-10.085l5.596-2.986 4.707 2.896c7.058 4.343 17.958 8.885 25.658 10.691 15.246 3.578 28.045-1.419 32.802-12.806 2.452-5.87 1.789-6.83-.831-1.203-6.784 14.568-23.514 16.494-46.116 5.308-4.4-2.178-8.9-4.647-10-5.488-1.994-1.524-1.993-1.534.131-3.214a102.707 102.707 0 0 1 4-2.989c1.028-.717-.265-.138-2.873 1.287l-4.742 2.592-5.258-3.91c-17.265-12.84-35.056-33.84-46.119-54.44-2.002-3.726-3.639-7.405-3.639-8.174 0-1.885 16.801-18.883 25.5-25.798C193.604 255.722 208.11 246 209.99 246c.889 0 3.617 1.397 6.063 3.105l4.447 3.104-4.389-3.929-4.39-3.929 4.89-2.32c11.359-5.39 15.682-7.048 24.962-9.576 8.385-2.285 11.241-2.609 19.86-2.256 8.443.347 10.898.842 15.216 3.073 5.773 2.981 10.95 8.625 11.906 12.979.349 1.59.862 2.665 1.14 2.388 1.13-1.131-2.039-7.748-5.707-11.915-5.717-6.495-12.005-8.883-24.449-9.286-5.521-.179-12.514.07-15.539.554m-86.052 72.258c10.163 19.526 30.108 42.732 47.602 55.384 1.622 1.173 2.673 2.426 2.333 2.783-1.144 1.206-17.337 7.47-23.383 9.045-3.3.86-9.837 2.075-14.526 2.701-16.444 2.194-29.607-2.951-34.974-13.67-4.863-9.711-2.417-27.774 5.753-42.493 3.607-6.499 12.603-20 13.326-20 .338 0 2.079 2.813 3.869 6.25M181 233.428c7.898 1.431 15.608 4.147 20.888 7.358l3.162 1.923-8.275 5.311c-11.52 7.393-20.653 14.764-31.991 25.816-11.086 10.807-9.996 11.016-13.288-2.553-2.423-9.989-1.772-22.24 1.489-28.043 2.9-5.159 8.24-9.004 14.104-10.155 5.979-1.174 5.466-1.186 13.911.343M354.25 289.648 351 291.25v17.316c0 10.568.393 17.559 1.009 17.94.555.342 1.905.339 3-.009 1.651-.524 1.991-1.518 1.991-5.822v-5.189l4.443.353c8.707.692 14.05-3.033 15.957-11.126 1.044-4.431-1.052-10.2-4.949-13.622-3.067-2.693-4.257-3.088-9.236-3.068-3.177.012-7.158.734-8.965 1.625m13.984 3.27c3.001 2.681 3.266 3.405 3.266 8.919 0 4.92-.423 6.452-2.345 8.498-2.87 3.055-6.183 3.985-9.586 2.691-2.522-.959-2.569-1.16-2.569-10.952 0-8.445.268-10.131 1.75-10.994 3.039-1.77 6.113-1.174 9.484 1.838"/>
<path d="M270.849 291.52c-2.862 1.555-6.849 8.731-6.849 12.328 0 3.35 2.429 8.363 5.363 11.069 3.467 3.197 11.894 4.036 16.518 1.645 8.799-4.551 9.631-18.081 1.504-24.474-3.195-2.513-12.375-2.828-16.536-.568m13.228 3.403c2.47 2.471 2.923 3.717 2.923 8.05 0 11.404-7.831 16.44-14.335 9.219-4.177-4.637-2.866-15.93 2.166-18.662 3.968-2.155 6.004-1.848 9.246 1.393M304 291.764l-3.5 1.751-.281 11.665c-.264 10.958-.158 11.704 1.741 12.307 1.112.353 2.476.361 3.031.019.583-.36 1.009-5.409 1.009-11.944v-11.319l3.137-1.3c2.635-1.091 3.556-1.065 5.75.165 2.529 1.417 2.622 1.804 2.896 12.083.292 10.974 1.339 13.744 4.704 12.452 1.229-.471 1.513-2.733 1.513-12.034v-11.454l3.538-1.168c2.946-.972 3.95-.897 6 .446 2.367 1.551 2.462 2.034 2.462 12.523 0 10.015.163 10.961 1.991 11.541 1.095.348 2.445.351 3 .009.579-.358 1.009-5.285 1.009-11.565 0-9.561-.249-11.19-1.975-12.916-2.618-2.618-5.962-3.361-11.752-2.613-5.571.72-6.765.726-14.773.083-4.468-.359-6.894-.035-9.5 1.269M419.855 291.694c-8.176 5.074-7.49 19.932 1.129 24.471 4.302 2.265 12.052 2.385 16.181.25 4.731-2.447 2.118-4.145-3.141-2.041-2.317.927-5.18 1.374-6.569 1.025-2.676-.671-7.455-5.733-7.455-7.896 0-1.41.962-1.676 12.821-3.551 4.528-.715 7.527-1.696 7.864-2.572.911-2.376-1.849-7.509-5.105-9.495-3.875-2.363-12.064-2.462-15.725-.191m12.389 2.283c1.383 1.088 2.733 3.12 2.999 4.516.539 2.818.397 2.884-9.493 4.351-5.582.828-5.75.786-5.75-1.448 0-7.509 6.852-11.66 12.244-7.419M241.646 281.16c-8.639 1.91-13.646 8.684-13.646 18.462C228 310.55 235.438 318 246.348 318c4.99 0 11.652-2.224 11.652-3.89 0-1.898-2.01-2.216-4.221-.668-1.238.868-4.282 1.558-6.867 1.558-8.174 0-12.912-5.712-12.912-15.564 0-7.429 2.835-12.607 8.235-15.042 3.764-1.697 4.219-1.702 8.752-.092 5.471 1.943 7.013 2.102 7.013.724 0-2.83-10.169-5.234-16.354-3.866M205.31 281.139c-2.304.405-5.334 1.486-6.732 2.402-5.892 3.86-8.906 13.837-6.676 22.101 1.391 5.158 7.538 10.975 12.601 11.925 5.06.949 11.975.005 15.137-2.067 2.339-1.532 2.463-1.863 1.009-2.677-1.139-.637-2.356-.441-3.877.624-1.269.889-4.304 1.553-7.095 1.553-4.187 0-5.345-.468-8.187-3.31-3.734-3.734-5.169-9.71-3.998-16.644 1.463-8.66 9.533-13.734 16.928-10.644 4.356 1.82 6.58 2.034 6.58.633 0-2.716-9.286-5.022-15.69-3.896M400 297.933c0 18.026.095 18.962 1.991 19.564 1.095.348 2.445.351 3 .009.621-.384 1.009-7.904 1.009-19.565V279h-6v18.933M451.72 291.67l-3.78 1.568.28 12.131.28 12.131h2.5c2.499 0 2.5-.005 3-11.931l.5-11.93 3-.848c1.65-.466 4.238-.621 5.75-.344 1.985.363 2.75.092 2.75-.972 0-2.026-9.228-1.899-14.28.195M385.709 290.624c-.39.39-.709 6.454-.709 13.475 0 12.092.111 12.801 2.101 13.433 1.155.367 2.519.248 3.031-.264s.804-6.744.649-13.849c-.264-12.136-.405-12.937-2.322-13.211-1.123-.161-2.36.027-2.75.416M158.655 333.829c-.91 1.006-1.655 2.961-1.655 4.345 0 5.874 8.329 8.306 11.56 3.375 4.009-6.119-4.999-13.141-9.905-7.72M166.557 243.223c-2.036 2.906-1.966 5.05.253 7.791 3.511 4.335 11.19 1.504 11.19-4.125 0-5.213-8.461-7.924-11.443-3.666M264.039 246.189c-2.588 2.777-2.603 6.247-.039 8.811 4.121 4.121 10 1.316 10-4.772 0-5.586-6.184-8.094-9.961-4.039M250.25 347.524c-2.803 1.98-2.978 6.508-.344 8.891 2.878 2.605 8.158 1.753 10.042-1.619 1.394-2.495 1.35-2.921-.567-5.5-2.452-3.299-5.997-3.987-9.131-1.772"/>
<path d="M399.654 277.679c-.373.374 1.014.711 3.084.75l3.762.071.532 20 .532 20 .218-19.55c.158-14.126-.115-19.883-.982-20.75-1.29-1.29-6.031-1.636-7.146-.521M350.2 290.2c-1.241 1.241-1.818 35.848-.617 37.049.32.321.528-7.672.461-17.762-.11-16.642.045-18.441 1.667-19.385.984-.573 1.317-1.055.739-1.072-.577-.016-1.59.51-2.25 1.17"/>
<path d="M399.598 278.736c-.329.328-.504 8.96-.388 19.181l.209 18.583.388-19.181c.214-10.549.119-18.912-.209-18.583"/>
<path d="M350.205 308.691c-.113 9.455.133 17.401.545 17.657.413.256.505-7.48.205-17.191l-.546-17.657-.204 17.191"/>
<path d="M307.635 294.698c-.349.349-.548 5.848-.442 12.219l.194 11.583.442-12.219c.243-6.72.156-11.932-.194-11.583"/>
<path d="M384.57 279.887c-.805 1.302 2.048 3.333 4.12 2.934.983-.189 1.938-1.126 2.122-2.082.258-1.341-.355-1.739-2.68-1.739-1.658 0-3.261.399-3.562.887"/>
<path d="M447.187 305.691c-.103 6.155.151 11.401.563 11.658.413.256.497-4.78.187-11.191l-.562-11.658-.188 11.191"/>
<path d="M357.667 292.667c-.852.851-.879 17.788-.03 18.637.35.35.547-3.468.436-8.485-.145-6.623.16-9.351 1.113-9.955.728-.462.831-.84.231-.849-.596-.008-1.384.285-1.75.652M228.288 257.559c2.618 2.782 4.514 5.306 4.212 5.608-.302.301.148 1.126 1 1.833.852.707 1.854.979 2.227.606.374-.374-2.218-3.475-5.76-6.893-4.53-4.371-5.028-4.713-1.679-1.154M289.169 259.191c-.093 4.23.169 7.901.581 8.157.413.257.489-3.204.169-7.69l-.581-8.158-.169 7.691M188 342l7 7-7-7-7-7 7 7M383.915 278.699c-1.28 1.63-1.254 1.675.275.479.929-.727 2.954-1.177 4.5-1 2.355.27 2.827.808 2.916 3.322.086 2.449.253 2.654.909 1.114 1.142-2.682-.705-5.062-4.201-5.415-1.956-.197-3.472.32-4.399 1.5"/>
<path d="M275 342.833c0 2.842.441 5.167.981 5.167.591 0 .733-1.889.359-4.75-.846-6.462-1.34-6.615-1.34-.417"/>
<path d="M357.092 322c-.192 3.575-.039 5.768.339 4.873.379-.895.536-3.82.35-6.5-.318-4.571-.361-4.471-.689 1.627"/>
<path d="m192 338 6 6-6-6-6-6 6 6"/>
<path d="M179.893 323.676c1.736 2.296 3.962 4.771 4.945 5.5.983.728-.438-1.151-3.158-4.176-3.467-3.856-4.001-4.252-1.787-1.324M162.5 274.457l-5 5.097 5-5.097 5-5.096-5 5.096M273.173 330.5c.027 4.257.14 4.546.762 1.949.402-1.678.388-3.928-.032-5-.504-1.289-.752-.255-.73 3.051M285.582 289.969c1.144.463 3.282 2.269 4.75 4.013 1.467 1.744 2.668 2.775 2.668 2.291 0-1.463-6.49-7.278-8.048-7.21-.839.037-.574.419.63.906"/>
<path d="M274.116 334c-.039 3.219.209 4.049.872 2.915.547-.935.569-2.782.056-4.5-.805-2.691-.876-2.569-.928 1.585"/></svg>
